<svg width="14" height="13" viewBox="0 0 14 13" fill="none" xmlns="http://www.w3.org/2000/svg">
<path d="M6.79447 1.52664C6.89695 1.21123 7.34316 1.21123 7.44565 1.52664L8.34659 4.29945C8.52629 4.85253 9.04169 5.22699 9.62323 5.22699H12.5387C12.8704 5.22699 13.0083 5.65136 12.74 5.84629L10.3813 7.55998C9.91079 7.9018 9.71393 8.50769 9.89363 9.06077L10.7946 11.8336C10.8971 12.149 10.5361 12.4113 10.2678 12.2163L7.90907 10.5026C7.43859 10.1608 6.80152 10.1608 6.33105 10.5026L3.97235 12.2163C3.70406 12.4113 3.34306 12.149 3.44554 11.8336L4.34649 9.06077C4.52619 8.50769 4.32933 7.9018 3.85885 7.55998L1.50015 5.84629C1.23186 5.65136 1.36974 5.22699 1.70138 5.22699H4.61689C5.19843 5.22699 5.71383 4.85253 5.89353 4.29945L6.79447 1.52664Z" stroke="#FFC107"/>
</svg>
