<svg width="13" height="13" viewBox="0 0 13 13" fill="none" xmlns="http://www.w3.org/2000/svg">
<path d="M5.56211 1.37208C5.81427 0.596024 6.91218 0.596025 7.16434 1.37208L8.06528 4.1449C8.17805 4.49196 8.50147 4.72694 8.86639 4.72694H11.7819C12.5979 4.72694 12.9372 5.77112 12.277 6.25075L9.91832 7.96445C9.62309 8.17894 9.49956 8.55915 9.61233 8.90621L10.5133 11.679C10.7654 12.4551 9.87719 13.1004 9.21704 12.6208L6.85834 10.9071C6.56311 10.6926 6.16334 10.6926 5.86811 10.9071L3.50941 12.6208C2.84925 13.1004 1.96102 12.4551 2.21318 11.679L3.11412 8.90621C3.22689 8.55915 3.10335 8.17894 2.80812 7.96445L0.449426 6.25075C-0.210728 5.77112 0.128546 4.72694 0.944542 4.72694H3.86005C4.22498 4.72694 4.5484 4.49196 4.66117 4.1449L5.56211 1.37208Z" fill="#FFC107"/>
</svg>
