<svg width="19" height="19" viewBox="0 0 19 19" fill="none" xmlns="http://www.w3.org/2000/svg">
<path d="M9.60609 7.76684V11.2178H14.3981C13.9521 13.4108 12.0851 14.6708 9.60609 14.6708C8.21847 14.6517 6.89414 14.0871 5.91963 13.0991C4.94511 12.1111 4.39875 10.7791 4.39875 9.39134C4.39875 8.00358 4.94511 6.67162 5.91963 5.68359C6.89414 4.69557 8.21847 4.13094 9.60609 4.11184C10.8063 4.1104 11.9696 4.52691 12.8961 5.28984L15.4961 2.68984C14.4113 1.73561 13.1112 1.05882 11.7074 0.717552C10.3035 0.376284 8.8378 0.380726 7.43603 0.730497C6.03426 1.08027 4.73829 1.76492 3.65932 2.72571C2.58035 3.6865 1.7506 4.89473 1.24128 6.24672C0.731962 7.59871 0.558276 9.05409 0.735129 10.488C0.911982 11.9219 1.43409 13.2914 2.25666 14.4791C3.07922 15.6669 4.17768 16.6373 5.45777 17.3071C6.73785 17.9769 8.16135 18.3262 9.60609 18.3248C14.0731 18.3248 18.1351 15.0758 18.1351 9.39084C18.1282 8.84348 18.0611 8.29854 17.9351 7.76584L9.60609 7.76684Z" fill="#1D1B19"/>
</svg>
