<svg width="43" height="39" viewBox="0 0 43 39" fill="none" xmlns="http://www.w3.org/2000/svg">
<path d="M25.2702 4.31754H29.4819L37.9054 19.0585H40.0112C40.5697 19.0585 41.1054 19.2804 41.5003 19.6753C41.8952 20.0702 42.1171 20.6059 42.1171 21.1644C42.1171 21.7229 41.8952 22.2585 41.5003 22.6534C41.1054 23.0484 40.5697 23.2702 40.0112 23.2702H37.9054V35.9053C37.9054 36.4638 37.6835 36.9995 37.2886 37.3944C36.8936 37.7893 36.358 38.0112 35.7995 38.0112H33.6936C33.1351 38.0112 32.5995 37.7893 32.2046 37.3944C31.8097 36.9995 31.5878 36.4638 31.5878 35.9053V33.7995H10.5293V35.9053C10.5293 36.4638 10.3074 36.9995 9.91247 37.3944C9.51755 37.7893 8.98192 38.0112 8.42341 38.0112H6.31756C5.75905 38.0112 5.22342 37.7893 4.8285 37.3944C4.43357 36.9995 4.21171 36.4638 4.21171 35.9053V23.2702H2.10585C1.54735 23.2702 1.01171 23.0484 0.61679 22.6534C0.221866 22.2585 0 21.7229 0 21.1644C0 20.6059 0.221866 20.0702 0.61679 19.6753C1.01171 19.2804 1.54735 19.0585 2.10585 19.0585H4.21171L12.6351 4.31754H16.8468V0.105835H25.2702V4.31754ZM33.3988 19.0585L27.3761 8.52925H14.741L8.71823 19.0585H33.3988ZM11.5822 29.5878C12.42 29.5878 13.2234 29.255 13.8158 28.6626C14.4082 28.0702 14.741 27.2668 14.741 26.429C14.741 25.5912 14.4082 24.7878 13.8158 24.1954C13.2234 23.603 12.42 23.2702 11.5822 23.2702C10.7444 23.2702 9.94098 23.603 9.3486 24.1954C8.75621 24.7878 8.42341 25.5912 8.42341 26.429C8.42341 27.2668 8.75621 28.0702 9.3486 28.6626C9.94098 29.255 10.7444 29.5878 11.5822 29.5878ZM30.5349 29.5878C31.3726 29.5878 32.1761 29.255 32.7685 28.6626C33.3609 28.0702 33.6936 27.2668 33.6936 26.429C33.6936 25.5912 33.3609 24.7878 32.7685 24.1954C32.1761 23.603 31.3726 23.2702 30.5349 23.2702C29.6971 23.2702 28.8937 23.603 28.3013 24.1954C27.7089 24.7878 27.3761 25.5912 27.3761 26.429C27.3761 27.2668 27.7089 28.0702 28.3013 28.6626C28.8937 29.255 29.6971 29.5878 30.5349 29.5878Z" fill="#352F2B"/>
</svg>
