<svg width="25" height="21" viewBox="0 0 25 21" fill="none" xmlns="http://www.w3.org/2000/svg">
<path d="M24.668 2.84059C23.7854 3.23113 22.8249 3.51219 21.8356 3.62166C22.8627 2.99573 23.6319 2.00687 23.9988 0.840595C23.035 1.42873 21.9791 1.84114 20.878 2.05953C20.4178 1.55487 19.8613 1.15284 19.243 0.878487C18.6247 0.604131 17.9579 0.46333 17.2842 0.464856C14.5586 0.464856 12.3666 2.73113 12.3666 5.51219C12.3666 5.90272 12.4127 6.29325 12.4877 6.66899C8.40646 6.45006 4.76651 4.45006 2.34661 1.38793C1.90568 2.16046 1.67462 3.04008 1.67746 3.93527C1.67746 5.68675 2.54563 7.23112 3.86951 8.13941C3.08932 8.10789 2.32741 7.88792 1.64574 7.4974V7.55953C1.64574 10.0122 3.33592 12.0447 5.58853 12.5122C5.16558 12.6249 4.73048 12.6825 4.29349 12.6838C3.97334 12.6838 3.67049 12.6512 3.36476 12.6069C3.98776 14.6069 5.80197 16.0595 7.96228 16.1069C6.2721 17.4648 4.15505 18.2637 1.85629 18.2637C1.44384 18.2637 1.06311 18.2489 0.667969 18.2015C2.84848 19.6364 5.43566 20.4648 8.22187 20.4648C17.2669 20.4648 22.2163 12.7785 22.2163 6.10686C22.2163 5.88793 22.2163 5.66899 22.2019 5.45006C23.1595 4.73113 23.9988 3.84059 24.668 2.84059Z" fill="#1D1B19"/>
</svg>
