<svg width="19" height="19" viewBox="0 0 19 19" fill="none" xmlns="http://www.w3.org/2000/svg">
<path d="M18.618 5.78884C18.6079 5.03147 18.4661 4.28162 18.199 3.57284C17.9673 2.975 17.6135 2.43204 17.1601 1.97867C16.7068 1.52531 16.1638 1.17149 15.566 0.939844C14.8663 0.677201 14.1271 0.535185 13.38 0.519844C12.418 0.476844 12.113 0.464844 9.67097 0.464844C7.22897 0.464844 6.91597 0.464844 5.96097 0.519844C5.21413 0.535298 4.47532 0.677312 3.77597 0.939844C3.17803 1.17133 2.63499 1.52509 2.1816 1.97848C1.72821 2.43186 1.37446 2.9749 1.14297 3.57284C0.8798 4.27198 0.738092 5.01095 0.723969 5.75784C0.680969 6.72084 0.667969 7.02584 0.667969 9.46784C0.667969 11.9098 0.667969 12.2218 0.723969 13.1778C0.738969 13.9258 0.879969 14.6638 1.14297 15.3648C1.37485 15.9626 1.72886 16.5054 2.1824 16.9586C2.63594 17.4118 3.17903 17.7654 3.77697 17.9968C4.4744 18.27 5.21334 18.4222 5.96197 18.4468C6.92497 18.4898 7.22997 18.5028 9.67197 18.5028C12.114 18.5028 12.427 18.5028 13.382 18.4468C14.1291 18.4321 14.8683 18.2904 15.568 18.0278C16.1657 17.7959 16.7085 17.442 17.1618 16.9887C17.6151 16.5354 17.9691 15.9925 18.201 15.3948C18.464 14.6948 18.605 13.9568 18.62 13.2078C18.663 12.2458 18.676 11.9408 18.676 9.49784C18.674 7.05584 18.674 6.74584 18.618 5.78884ZM9.66497 14.0858C7.11097 14.0858 5.04197 12.0168 5.04197 9.46284C5.04197 6.90884 7.11097 4.83984 9.66497 4.83984C10.8911 4.83984 12.0669 5.32691 12.9339 6.19389C13.8009 7.06087 14.288 8.23675 14.288 9.46284C14.288 10.6889 13.8009 11.8648 12.9339 12.7318C12.0669 13.5988 10.8911 14.0858 9.66497 14.0858ZM14.472 5.74684C14.3304 5.74697 14.1901 5.71918 14.0593 5.66505C13.9284 5.61093 13.8095 5.53153 13.7094 5.4314C13.6093 5.33127 13.5299 5.21238 13.4758 5.08153C13.4216 4.95068 13.3938 4.81045 13.394 4.66884C13.394 4.52734 13.4218 4.38723 13.476 4.2565C13.5301 4.12577 13.6095 4.00699 13.7096 3.90694C13.8096 3.80688 13.9284 3.72751 14.0591 3.67336C14.1899 3.61921 14.33 3.59134 14.4715 3.59134C14.613 3.59134 14.7531 3.61921 14.8838 3.67336C15.0145 3.72751 15.1333 3.80688 15.2334 3.90694C15.3334 4.00699 15.4128 4.12577 15.4669 4.2565C15.5211 4.38723 15.549 4.52734 15.549 4.66884C15.549 5.26484 15.067 5.74684 14.472 5.74684Z" fill="#1D1B19"/>
</svg>
