<svg width="11" height="12" viewBox="0 0 11 12" fill="none" xmlns="http://www.w3.org/2000/svg">
<path d="M3.29455 0.33684C3.62628 0.242377 3.98227 0.258071 4.30324 0.381308C4.62421 0.504545 4.89082 0.727892 5.05866 1.01417L5.11552 1.12085L5.61663 2.17407C5.76894 2.49375 5.81838 2.84866 5.7588 3.19467C5.69923 3.54068 5.53326 3.86251 5.28155 4.12013L5.18148 4.21464L4.39001 4.9113C4.24749 5.03875 4.35438 5.53206 4.87065 6.3755C5.33386 7.13445 5.71215 7.48887 5.89713 7.5082H5.92973L5.96991 7.50104L7.52403 7.05211C7.73289 6.99161 7.95579 6.98922 8.16606 7.04522C8.37633 7.10121 8.56507 7.21323 8.70971 7.36786L8.77945 7.4502L9.80745 8.79626C10.0092 9.06002 10.1098 9.38079 10.0927 9.70576C10.0756 10.0307 9.94184 10.3405 9.71344 10.5841L9.62095 10.6743L9.2093 11.0423C8.84032 11.3723 8.37877 11.5953 7.8795 11.6848C7.38024 11.7743 6.86427 11.7265 6.39293 11.5471C4.92599 10.9886 3.59324 9.71273 2.38254 7.7323C1.16957 5.74686 0.665432 4.01631 0.890589 2.53421C0.95879 2.08611 1.15424 1.66383 1.45618 1.31223C1.75812 0.960628 2.15527 0.69284 2.60543 0.537317L2.75174 0.491494L3.29455 0.33684Z" fill="#C6C6C6"/>
</svg>
