<svg width="12" height="9" viewBox="0 0 12 9" fill="none" xmlns="http://www.w3.org/2000/svg">
<path d="M11.1042 0.727295L6.4157 5.39653C6.29503 5.51648 6.1318 5.58381 5.96165 5.58381C5.79151 5.58381 5.62828 5.51648 5.50761 5.39653L0.86092 0.762717C0.846635 0.815218 0.839061 0.869319 0.838379 0.923725V7.36404C0.838379 7.53485 0.906232 7.69866 1.02701 7.81944C1.14779 7.94022 1.3116 8.00808 1.48241 8.00808H10.4989C10.6697 8.00808 10.8335 7.94022 10.9543 7.81944C11.075 7.69866 11.1429 7.53485 11.1429 7.36404V0.923725C11.1403 0.856634 11.1273 0.790357 11.1042 0.727295ZM1.92357 7.36404H1.47597V6.90356L3.81703 4.58183L4.27107 5.03587L1.92357 7.36404ZM10.4924 7.36404H10.0416L7.6941 5.03587L8.14814 4.58183L10.4892 6.90356L10.4924 7.36404Z" fill="#C6C6C6"/>
</svg>
